<svg width="24" height="24" viewBox="0 0 24 24" fill="none" xmlns="http://www.w3.org/2000/svg">
<path d="M12 2.25C6.61406 2.25 2.25 6.61406 2.25 12C2.25 17.3859 6.61406 21.75 12 21.75C17.3859 21.75 21.75 17.3859 21.75 12C21.75 6.61406 17.3859 2.25 12 2.25ZM14.0344 15.8016C14.3859 16.1531 14.3859 16.7297 14.0344 17.0812C13.8562 17.2594 13.6266 17.3438 13.3969 17.3438C13.1672 17.3438 12.9328 17.2547 12.7547 17.0766L8.34844 12.6562C8.025 12.3 8.03437 11.7516 8.37656 11.4094L12.8484 6.92344C13.2 6.57187 13.7719 6.56719 14.1281 6.92344C14.4797 7.275 14.4844 7.84688 14.1281 8.20312L10.2891 12L14.0344 15.8016Z" fill="#AEACFF"/>
</svg>
