<svg width="24" height="24" viewBox="0 0 24 24" fill="none" xmlns="http://www.w3.org/2000/svg">
<path d="M2.25 12C2.25 17.3859 6.61406 21.75 12 21.75C17.3859 21.75 21.75 17.3859 21.75 12C21.75 6.61406 17.3859 2.25 12 2.25C6.61406 2.25 2.25 6.61406 2.25 12ZM13.7109 12L9.87188 8.19844C9.52031 7.84687 9.52031 7.27031 9.87188 6.91875C10.2234 6.56719 10.8 6.56719 11.1516 6.91875L15.6234 11.4047C15.9656 11.7469 15.975 12.3 15.6516 12.6516L11.2453 17.0719C11.0672 17.25 10.8375 17.3391 10.6031 17.3391C10.3734 17.3391 10.1391 17.25 9.96563 17.0766C9.61406 16.725 9.60938 16.1531 9.96563 15.7969L13.7109 12V12Z" fill="#AEACFF"/>
</svg>
