<svg width="24" height="24" viewBox="0 0 24 24" fill="none" xmlns="http://www.w3.org/2000/svg">
<path d="M16.5 2.625H16.4531C14.5922 2.625 12.9469 3.60938 12 5.0625C11.0531 3.60938 9.40781 2.625 7.54688 2.625H7.5C4.59844 2.65313 2.25 5.01094 2.25 7.92188C2.25 9.65625 3.00938 12.1172 4.49063 14.1422C7.3125 18 12 21.375 12 21.375C12 21.375 16.6875 18 19.5094 14.1422C20.9906 12.1172 21.75 9.65625 21.75 7.92188C21.75 5.01094 19.4016 2.65313 16.5 2.625ZM18.45 13.3688C16.4531 16.1016 13.4109 18.6234 12 19.725C10.5891 18.6234 7.54688 16.0969 5.55 13.3641C4.17656 11.4891 3.5625 9.28125 3.5625 7.92188C3.5625 6.8625 3.975 5.86875 4.71562 5.11875C5.46094 4.36875 6.45 3.95156 7.50937 3.94219H7.55156C8.22188 3.94219 8.8875 4.11563 9.47812 4.44844C10.05 4.77188 10.5469 5.23125 10.9031 5.78438C11.1469 6.15469 11.5594 6.37969 12.0047 6.37969C12.45 6.37969 12.8625 6.15469 13.1063 5.78438C13.4672 5.23125 13.9594 4.77188 14.5312 4.44844C15.1219 4.11563 15.7875 3.94219 16.4578 3.94219H16.5C17.5547 3.95156 18.5484 4.36875 19.2938 5.11875C20.0391 5.86875 20.4469 6.86719 20.4469 7.92188C20.4375 9.28125 19.8234 11.4891 18.45 13.3688Z" fill="#646464"/>
</svg>
